<svg width="80" height="80" viewBox="0 0 80 80" fill="none" xmlns="http://www.w3.org/2000/svg">
  <rect width="80" height="80" rx="16" fill="#1E40AF"/>
  <rect x="30" y="22" width="20" height="34" rx="2" fill="#2563EB"/>
  <rect x="14" y="33" width="14" height="23" rx="2" fill="#2563EB"/>
  <rect x="52" y="29" width="14" height="27" rx="2" fill="#2563EB"/>
  <rect x="10" y="55" width="60" height="3" rx="1.5" fill="#F97316"/>
  <rect x="35" y="27" width="5" height="5" rx="1" fill="#F97316"/>
  <rect x="43" y="27" width="5" height="5" rx="1" fill="#F97316"/>
  <rect x="35" y="36" width="5" height="5" rx="1" fill="#F97316"/>
  <rect x="43" y="36" width="5" height="5" rx="1" fill="#F97316"/>
  <rect x="18" y="38" width="4" height="4" rx="1" fill="#F97316"/>
  <rect x="24" y="38" width="4" height="4" rx="1" fill="#F97316"/>
  <rect x="18" y="45" width="4" height="4" rx="1" fill="#F97316"/>
  <rect x="24" y="45" width="4" height="4" rx="1" fill="#F97316"/>
  <rect x="55" y="34" width="4" height="4" rx="1" fill="#F97316"/>
  <rect x="61" y="34" width="4" height="4" rx="1" fill="#F97316"/>
  <rect x="55" y="42" width="4" height="4" rx="1" fill="#F97316"/>
  <rect x="61" y="42" width="4" height="4" rx="1" fill="#F97316"/>
  <path d="M30 22 Q40 14 50 22" stroke="#F97316" stroke-width="3" fill="none" stroke-linecap="round"/>
  <rect x="36" y="46" width="8" height="9" rx="1" fill="#F97316" opacity="0.9"/>
</svg>
